HIERARCHY
ROOT Hips
{
  OFFSET -102.467 93.6631 130.069
  CHANNELS 6 Xposition Yposition Zposition Zrotation Xrotation Yrotation
  JOINT LeftUpLeg
  {
    OFFSET 8.64259 1.95398 -2.38835
    CHANNELS 3 Zrotation Xrotation Yrotation
    JOINT LeftLeg
    {
      OFFSET 43.7702 0 0
      CHANNELS 3 Zrotation Xrotation Yrotation
      JOINT LeftFoot
      {
        OFFSET 40.6238 0 0
        CHANNELS 3 Zrotation Xrotation Yrotation
        JOINT LeftToeBase
        {
          OFFSET 12.7242 0 0
          CHANNELS 3 Zrotation Xrotation Yrotation
          End Site
          {
            OFFSET 0 0 0
          }
        }
      }
    }
  }
  JOINT RightUpLeg
  {
    OFFSET -8.2249 1.95398 -2.59336
    CHANNELS 3 Zrotation Xrotation Yrotation
    JOINT RightLeg
    {
      OFFSET 43.5653 0 0
      CHANNELS 3 Zrotation Xrotation Yrotation
      JOINT RightFoot
      {
        OFFSET 40.6238 0 0
        CHANNELS 3 Zrotation Xrotation Yrotation
        JOINT RightToeBase
        {
          OFFSET 12.7242 0 0
          CHANNELS 3 Zrotation Xrotation Yrotation
          End Site
          {
            OFFSET 0 0 0
          }
        }
      }
    }
  }
  JOINT Spine
  {
    OFFSET 0.165834 0.87714 6.61349
    CHANNELS 3 Zrotation Xrotation Yrotation
    JOINT Spine1
    {
      OFFSET 7.38963 1.71661e-005 0
      CHANNELS 3 Zrotation Xrotation Yrotation
      JOINT Spine2
      {
        OFFSET 11.9445 1.14441e-005 0
        CHANNELS 3 Zrotation Xrotation Yrotation
        JOINT Spine3
        {
          OFFSET 14.7254 4.19617e-005 0
          CHANNELS 3 Zrotation Xrotation Yrotation
          JOINT Spine4
          {
            OFFSET 10.9679 0 0
            CHANNELS 3 Zrotation Xrotation Yrotation
            JOINT RightShoulder
            {
              OFFSET 2.46616 -1.6653 3.69651
              CHANNELS 3 Zrotation Xrotation Yrotation
              JOINT RightArm
              {
                OFFSET 13.0012 0 0
                CHANNELS 3 Zrotation Xrotation Yrotation
                JOINT RightForeArm
                {
                  OFFSET 28.7848 1.52588e-005 0
                  CHANNELS 3 Zrotation Xrotation Yrotation
                  JOINT RightHand
                  {
                    OFFSET 26.5688 1.52588e-005 0
                    CHANNELS 3 Zrotation Xrotation Yrotation
                    End Site
                    {
                      OFFSET 0 0 0
                    }
                  }
                }
              }
            }
            JOINT LeftShoulder
            {
              OFFSET 2.38034 -1.29275 -3.7523
              CHANNELS 3 Zrotation Xrotation Yrotation
              JOINT LeftArm
              {
                OFFSET 16.3182 6.10351e-005 0
                CHANNELS 3 Zrotation Xrotation Yrotation
                JOINT LeftForeArm
                {
                  OFFSET 27.0901 0 0
                  CHANNELS 3 Zrotation Xrotation Yrotation
                  JOINT LeftHand
                  {
                    OFFSET 24.5451 1.52588e-005 0
                    CHANNELS 3 Zrotation Xrotation Yrotation
                    End Site
                    {
                      OFFSET 0 0 0
                    }
                  }
                }
              }
            }
            JOINT Neck
            {
              OFFSET 5.0226 -0.0266342 0
              CHANNELS 3 Zrotation Xrotation Yrotation
              JOINT Head
              {
                OFFSET 6.69363 2.86102e-005 0
                CHANNELS 3 Zrotation Xrotation Yrotation
                End Site
                {
                  OFFSET 0 0 0
                }
              }
            }
          }
        }
      }
    }
  }
}
MOTION
Frames:	13
Frame Time:	0.0416667
2.15408 98.3894 -16.3115 112.15 -81.5725 110.745 -174.43 -0.571638 91.332 -13.188 6.4427 2.71064 66.7579 3.27848 -3.17811 30.7392 -0.0819725 1.74962 174.226 0.0292196 88.4742 -16.904 -3.0336 0.302769 71.1635 -5.48623 0.852333 27.8275 0.369342 0.938016 -0.324915 7.03168 -90.802 12.8016 -1.02901 -1.48034 1.13032 -1.09316 -1.43364 -21.3992 -0.536612 -1.7211 -1.38659 -0.536619 -1.72111 101.113 -51.5179 -83.7803 26.915 -15.7254 -6.84395 0.934571 -6.50327 -12.0295 -11.4436 -0.689963 1.89369 -81.5171 -54.9091 91.5985 -28.6412 8.20092 -16.1791 0.973858 26.7368 -6.42496 -2.43203 -0.0902409 -5.24346 6.39027 -1.77432 3.60049 -17.9599 -1.61555 -6.8528 
2.36886 98.3923 -16.3411 111.918 -80.8463 110.109 -174.519 -0.956084 90.9814 -12.7239 7.24213 2.53524 66.2849 3.25274 -2.96054 31.1975 -0.103318 2.0357 173.916 -0.0764939 87.9925 -17.0478 -3.18113 0.374566 70.6816 -5.68088 -0.052854 29.0954 0.102528 1.07134 -0.372946 7.00533 -90.9755 12.8506 -1.20775 -1.80541 1.17906 -1.28603 -1.75054 -21.3475 -0.609445 -2.08481 -1.3349 -0.609451 -2.08481 101.092 -52.0108 -83.8033 25.7041 -15.6548 -6.61946 1.12974 -5.73869 -12.5418 -13.0896 -0.822161 2.17601 -81.9065 -54.6212 91.0202 -29.5336 7.87467 -15.6561 1.30729 26.5746 -6.53744 -2.26731 -0.0891398 -5.84152 6.80461 -1.76884 3.2769 -18.3407 -1.55941 -6.65733 
2.40363 98.4142 -16.3591 110.823 -80.2048 108.594 -174.685 -1.17695 90.6318 -12.2464 7.62036 2.46147 66.0584 3.19135 -3.11562 30.9694 -0.0998061 1.81124 173.736 -0.153283 87.5964 -17.1364 -2.78351 0.305982 70.8591 -5.57358 0.181327 28.9292 0.07414 0.664648 -0.403784 6.95829 -91.1872 12.9389 -1.37114 -2.20733 1.26691 -1.46694 -2.14488 -21.2549 -0.644599 -2.51717 -1.24229 -0.644605 -2.51717 101.215 -51.8163 -83.62 24.983 -15.0843 -6.93843 1.01504 -6.35249 -12.1502 -13.2312 -0.868035 2.50149 -82.167 -54.4187 90.6299 -30.214 8.21776 -15.5564 1.08007 26.6963 -6.2833 -2.16455 -0.0882863 -5.37399 7.43217 -1.80243 2.90075 -18.8072 -1.59575 -5.95803 
2.23741 98.3865 -16.395 110.411 -79.8079 107.621 -174.977 -1.24564 90.1814 -12.1379 7.46054 2.44774 65.9947 3.15012 -3.41497 30.6711 -0.0955747 1.50097 173.611 0.275778 87.1605 -18.1208 -1.77692 0.1438 71.6715 -5.14012 1.1817 28.3237 0.281433 1.09625 -0.359116 6.96522 -91.3878 12.9206 -1.37856 -2.60888 1.2479 -1.49201 -2.54573 -21.2676 -0.531135 -2.90232 -1.25494 -0.531132 -2.90233 101.678 -51.5292 -82.9148 23.8737 -15.0718 -7.89296 1.68801 -4.68521 -11.4935 -14.101 -0.781764 1.29624 -82.7075 -55.3706 89.927 -29.6107 8.46617 -16.3403 0.903115 27.7564 -6.19156 -2.623 -0.0875022 -5.244 8.27231 -2.10706 2.97274 -19.2469 -1.84897 -6.3955 
2.06659 98.3461 -16.4128 111.859 -79.2477 108.339 -175.524 -1.78272 89.5158 -11.9172 7.53277 2.56019 65.8102 3.47157 -3.25692 30.8901 -0.100651 1.70761 173.171 0.356414 86.4077 -19.1204 -1.24323 0.207725 72.4348 -4.86664 1.83567 28.087 0.424805 1.67394 -0.409195 6.96894 -91.5231 12.908 -1.54263 -2.85938 1.235 -1.66693 -2.78879 -21.2766 -0.612451 -3.19047 -1.26398 -0.61245 -3.19047 101.466 -51.2959 -83.2432 23.3444 -15.1542 -7.78184 1.92017 -4.15476 -11.3759 -14.7049 -0.870092 1.72237 -82.8126 -55.6335 89.7975 -29.7446 8.39749 -16.1966 1.00886 27.0686 -6.30808 -2.732 -0.08692 -4.7815 8.32087 -2.03398 3.30353 -19.4717 -1.74172 -7.08607 
1.8177 98.2951 -16.341 114.299 -79.2324 110.57 -175.516 -1.98493 89.524 -12.3732 7.00319 2.58347 65.9316 3.5372 -3.6668 31.1916 -0.116128 1.87994 173.056 0.293642 86.2562 -19.8352 -1.70949 0.248607 72.6892 -4.84908 1.80239 27.9305 0.406278 1.33244 -0.411511 6.94273 -91.7011 12.9546 -1.63316 -3.20375 1.28092 -1.77252 -3.12887 -21.2243 -0.595504 -3.54603 -1.21161 -0.595493 -3.54603 101.393 -50.9628 -83.3587 23.1753 -15.2141 -7.16402 2.03594 -4.02576 -11.6411 -15.7021 -1.03661 2.52547 -82.7659 -54.8639 89.8018 -31.0063 8.61245 -15.4794 1.39723 27.1851 -6.98436 -2.84727 -0.0867184 -5.39351 7.93906 -2.09825 2.49877 -18.9323 -1.82525 -5.82674 
1.45875 98.2822 -16.2847 115.324 -78.8834 111.2 -175.65 -2.26695 89.4166 -12.3677 6.88823 2.58695 65.7265 3.58443 -4.01589 31.4192 -0.125789 2.02812 172.958 0.0958845 86.1171 -20.2198 -1.80651 0.223828 73.0072 -5.06058 1.6348 28.0009 0.333438 0.960746 -0.455586 6.87672 -91.8485 13.0801 -1.7931 -3.47705 1.40592 -1.94431 -3.39489 -21.094 -0.666098 -3.85462 -1.08135 -0.666103 -3.85463 102.064 -50.9667 -82.3255 22.2946 -15.229 -7.02733 2.22397 -3.62953 -11.5223 -15.923 -1.04059 2.44916 -83.2044 -54.2246 89.1162 -32.4356 8.68941 -14.6176 1.58707 27.4861 -7.1555 -3.54818 -0.0785985 -5.39587 7.45837 -2.17503 2.13753 -19.06 -1.83658 -5.6423 
1.08877 98.1594 -16.1873 115.802 -78.5477 111.398 -176.074 -1.94565 89.2693 -13.3835 6.22265 2.73823 66.0434 3.88498 -4.45275 32.0856 -0.153134 2.42557 172.9 0.263921 86.0467 -21.193 -1.29293 0.230693 73.8448 -4.86366 2.20711 27.4801 0.42135 0.758126 -0.532694 6.8462 -92.002 13.1335 -2.0209 -3.75589 1.459 -2.18413 -3.66347 -21.0356 -0.7998 -4.18884 -1.02291 -0.799802 -4.18884 102.227 -50.7956 -82.0731 21.2366 -15.0184 -7.23936 2.57425 -2.73667 -10.9441 -16.6266 -1.02472 1.99171 -83.1401 -54.0016 89.1893 -33.0756 9.14692 -14.7688 1.48113 27.7776 -7.24236 -4.01399 -0.0699282 -5.82043 7.9701 -2.15465 1.77762 -19.6745 -1.68533 -5.87534 
0.701178 98.0772 -16.0042 119.06 -78.9019 114.783 -176.273 -1.8878 89.4932 -14.5919 5.3704 2.89037 66.2387 4.37996 -4.31159 33.3576 -0.251178 2.63941 172.927 -0.102664 86.3223 -21.5585 -1.542 0.26959 74.38 -5.25655 2.20081 27.0696 0.594701 1.30314 -0.553591 6.83941 -92.1425 13.1404 -2.13003 -4.02326 1.46527 -2.30491 -3.92581 -21.0231 -0.823794 -4.47649 -1.01043 -0.823793 -4.47649 102.311 -51.4631 -81.9457 19.3438 -15.0409 -6.78603 2.67189 -1.74353 -11.7376 -16.1939 -1.08272 2.61474 -83.0211 -53.5148 89.3194 -33.4255 9.50321 -14.8063 1.9073 28.4138 -8.07322 -3.37396 -0.0790405 -5.68352 7.75128 -2.15707 0.478989 -19.6752 -1.48526 -5.37282 
0.365338 97.9038 -15.7365 121.954 -79.3676 117.732 -176.266 -1.70796 89.7242 -15.8777 4.80105 2.76988 66.7693 5.23042 -3.66172 34.2004 -0.277319 3.09557 172.85 0.00706547 86.3811 -22.5423 -1.81261 0.399353 75.1663 -5.33416 2.58594 26.4874 0.808869 1.90406 -0.576485 6.77564 -92.2119 13.2641 -2.21091 -4.14986 1.58872 -2.39127 -4.04873 -20.8967 -0.863028 -4.62143 -0.884047 -0.863021 -4.62144 102.437 -51.6858 -81.7539 18.5903 -14.4121 -6.3849 2.73132 -1.14247 -11.5962 -16.3236 -1.09709 2.65468 -82.9023 -52.9639 89.4464 -33.917 9.22499 -14.9056 2.22584 29.5237 -8.08726 -4.33089 -0.0578403 -6.31507 7.3796 -2.09669 -0.610073 -19.881 -1.27525 -4.80659 
-0.0241649 97.6664 -15.6478 122.217 -78.8822 118.582 -176.568 -0.596142 90.3709 -18.5274 5.07902 3.01714 67.375 6.03126 -2.97707 35.5874 -0.270379 4.13598 172.928 -0.192347 87.1368 -23.1521 -1.34438 0.680203 75.8303 -5.36777 2.91981 26.3909 0.704507 0.993003 -0.729493 6.68832 -92.2708 13.4322 -2.54581 -4.22246 1.75726 -2.72902 -4.10656 -20.7286 -1.16077 -4.79107 -0.715964 -1.16076 -4.79108 102.304 -51.96 -81.9582 18.1998 -13.8427 -6.10134 3.07807 0.255169 -10.7223 -16.2295 -1.01679 2.11919 -82.7121 -52.2054 89.6618 -34.7171 9.15582 -14.8013 2.6676 29.5699 -8.35903 -3.57009 -0.0612128 -6.983 6.9398 -2.15027 -2.86397 -19.6293 -1.15168 -2.87111 
-0.599849 97.6054 -15.2842 132.514 -80.4523 129.154 -175.746 -1.45752 90.9841 -18.9581 3.44608 2.83422 68.2255 6.51638 -3.22766 35.3478 -0.0901232 5.45759 173.083 -0.636694 87.4459 -23.4999 -2.96025 0.658821 76.1076 -5.99694 2.68116 26.144 0.89666 1.9937 -0.652884 6.64816 -92.2471 13.5157 -2.3838 -4.19416 1.84051 -2.56591 -4.0854 -20.6449 -1.01468 -4.71551 -0.632218 -1.01468 -4.71552 101.755 -52.5703 -82.7895 17.6933 -13.6932 -5.31515 3.35775 0.796999 -10.0922 -16.7459 -1.0786 2.33014 -82.6481 -51.9029 89.7307 -35.027 9.6466 -13.9752 2.97823 29.2861 -9.46267 -4.07905 -0.115458 -3.1588 5.52796 -1.81287 -3.92642 -19.3456 -0.7403 -2.35123 
-1.08752 97.5976 -15.0887 139.583 -81.6186 136.74 -175.044 -1.78171 91.6112 -18.8964 2.9228 2.74281 68.4308 6.8241 -2.85634 35.8622 -0.0250708 6.23516 173.252 -0.71921 87.9513 -23.3174 -3.96574 0.829135 76.1499 -6.13936 2.63083 25.5875 1.0611 2.33458 -0.576113 6.63669 -92.2008 13.5427 -2.20951 -4.12308 1.8674 -2.3887 -4.02205 -20.6188 -0.869714 -4.59549 -0.606117 -0.869719 -4.5955 102.284 -52.7845 -81.9903 17.7394 -13.9163 -5.89161 3.83017 1.92872 -10.4414 -18.2944 -1.51669 4.46662 -82.7307 -52.3807 89.648 -34.5498 9.452 -14.4442 2.39315 28.3173 -8.619 -4.93268 -0.0976868 -4.04916 5.73748 -1.75366 -3.98396 -19.4264 -0.603945 -2.74225 
